<svg xmlns="http://www.w3.org/2000/svg" viewBox="0 0 48 48" width="48" height="48">
  <defs>
    <linearGradient id="waGradient" x1="0%" y1="0%" x2="0%" y2="100%">
      <stop offset="0%" stop-color="#25D366" />
      <stop offset="100%" stop-color="#128C7E" />
    </linearGradient>
  </defs>
  <path fill="url(#waGradient)" d="M4 44l2.9-10.6C5.4 30.2 4.5 27.2 4.5 24 4.5 13.5 13.5 4.5 24 4.5s19.5 9 19.5 19.5S34.5 43.5 24 43.5c-3 0-6-.7-8.7-2z"/>
  <path fill="#FFF" d="M35.2 29.9c-.5-.3-3-1.4-3.5-1.6-.5-.2-.9-.3-1.3.3-.4.6-1.5 1.6-1.8 1.9-.3.3-.7.3-1.2.1s-2.2-.8-4.1-2.6c-1.5-1.4-2.5-3-2.8-3.5-.3-.6 0-.9.2-1.1.2-.2.6-.7.9-1 .3-.3.4-.5.6-.8.2-.3.1-.6 0-.8-.1-.2-1.3-3.1-1.8-4.2-.5-1.2-.9-1-1.2-1-.3 0-.6 0-.9 0s-.8.1-1.2.6c-.4.6-1.6 1.5-1.6 3.6 0 2.1 1.7 4.1 2 4.4.3.3 3.3 5 8.1 7 4.8 1.9 4.8 1.3 5.7 1.2.9 0 3-1.2 3.4-2.3.4-1.2.4-2.1.3-2.3-.1-.3-.5-.4-1-.7z"/>
</svg>